<?xml version="1.0" encoding="UTF-8" standalone="no"?>
<svg
   xmlns:dc="http://purl.org/dc/elements/1.1/"
   xmlns:cc="http://creativecommons.org/ns#"
   xmlns:rdf="http://www.w3.org/1999/02/22-rdf-syntax-ns#"
   xmlns:svg="http://www.w3.org/2000/svg"
   xmlns="http://www.w3.org/2000/svg"
   xmlns:sodipodi="http://sodipodi.sourceforge.net/DTD/sodipodi-0.dtd"
   xmlns:inkscape="http://www.inkscape.org/namespaces/inkscape"
   width="19.979715mm"
   height="15.610417mm"
   viewBox="0 0 19.979715 15.610417"
   version="1.1"
   id="svg8"
   inkscape:version="1.0.2 (e86c870879, 2021-01-15)"
   sodipodi:docname="blocky-logo.svg">
  <defs
     id="defs2" />
  <sodipodi:namedview
     id="base"
     pagecolor="#ffffff"
     bordercolor="#666666"
     borderopacity="1.0"
     inkscape:pageopacity="0.0"
     inkscape:pageshadow="2"
     inkscape:zoom="1.1808307"
     inkscape:cx="150.39187"
     inkscape:cy="255.54409"
     inkscape:document-units="mm"
     inkscape:current-layer="layer1"
     inkscape:document-rotation="0"
     showgrid="false"
     inkscape:window-width="1920"
     inkscape:window-height="1080"
     inkscape:window-x="1920"
     inkscape:window-y="0"
     inkscape:window-maximized="1"
     fit-margin-top="0"
     fit-margin-left="0"
     fit-margin-right="0"
     fit-margin-bottom="0" />
  <metadata
     id="metadata5">
    <rdf:RDF>
      <cc:Work
         rdf:about="">
        <dc:format>image/svg+xml</dc:format>
        <dc:type
           rdf:resource="http://purl.org/dc/dcmitype/StillImage" />
        <dc:title></dc:title>
      </cc:Work>
    </rdf:RDF>
  </metadata>
  <g
     inkscape:label="Layer 1"
     inkscape:groupmode="layer"
     id="layer1"
     transform="translate(-17.537889,-3.2993293)">
    <path
       style="fill:#000000;stroke-width:0.264583"
       d="m 22.680767,16.528497 v -2.38125 h -0.732331 c -0.402782,0 -1.146923,0.277113 -1.653646,0.615807 -1.883459,1.258905 -2.369071,1.112345 -2.598349,-0.784189 -0.308979,-2.555813 -0.136719,-7.5045357 0.261225,-7.5045357 0.119479,0 0.816864,0.368956 1.549745,0.819902 0.454865,0.121651 2.360174,1.027965 2.644189,1.032182 0.492033,0 0.529167,-0.176389 0.529167,-2.513542 v -2.513542 h 2.525996 12.310842 v 2.095027 c 0,1.152265 -0.07227,2.283359 -0.160599,2.513542 -0.230868,0.60163 -0.894387,0.517108 -2.037295,-0.259519 -2.153973,-1.463662 -3.051498,-0.446501 -3.07884,3.4892317 -0.01953,2.810668 0.177941,3.69554 0.93544,4.191873 0.584221,0.382796 0.705456,0.358327 1.916435,-0.386795 0.711018,-0.437493 1.424231,-0.795442 1.584918,-0.795442 0.544658,0 0.839941,1.017044 0.839941,2.893022 v 1.869478 H 25.206763 22.680767 Z"
       id="path847"
       sodipodi:nodetypes="ccssssccscccsssssssscccc" />
  </g>
</svg>
